<?xml version="1.0" encoding="utf-8"?>
<!-- Generator: Adobe Illustrator 24.2.3, SVG Export Plug-In . SVG Version: 6.00 Build 0)  -->
<svg version="1.1" xmlns="http://www.w3.org/2000/svg" xmlns:xlink="http://www.w3.org/1999/xlink" x="0px" y="0px"
	 viewBox="0 0 100.44 77.4" style="enable-background:new 0 0 100.44 77.4;" xml:space="preserve">
<style type="text/css">
	.st0{opacity:0.5;}
	.st1{fill:#0071BC;stroke:#0071BC;stroke-miterlimit:10;}
	.st2{opacity:0.61;fill:#0071BC;stroke:#0071BC;stroke-miterlimit:10;}
	.st3{fill:#FFFFFF;stroke:#0071BC;stroke-miterlimit:10;}
</style>
<g id="BACKGROUND">
</g>
<g id="OBJECTS" class="st0">
	<g>
		<g>
			<g>
				<path class="st1" d="M57.51,25.41l-11.97,5.41c-1.33-3.29-3.32-5.87-5.99-7.74c-2.66-1.87-5.7-2.8-9.11-2.8
					c-2.98,0-5.38,0.71-7.22,2.14c-1.84,1.43-2.75,3.28-2.75,5.55c0,3.36,2.15,5.76,6.46,7.22l3.52,1.13v14.73l-7.5-2.47
					C11.61,44.84,5.94,38.16,5.94,28.54c0-4.18,1.03-7.85,3.09-11.02c2.06-3.16,4.94-5.63,8.65-7.41c3.7-1.77,7.96-2.66,12.77-2.66
					c6.39,0,12.01,1.6,16.86,4.79C52.15,15.45,55.55,19.83,57.51,25.41z"/>
			</g>
		</g>
		<path class="st2" d="M39.56,23.08c-2.66-1.87-5.7-2.8-9.12-2.8c-2.97,0-5.38,0.71-7.22,2.14c-1.34,1.04-2.19,2.29-2.55,3.78
			c-5.39,2.65-10.71,6.94-13.54,9.39c-0.81-2.14-1.2-4.49-1.2-7.05c0-4.18,1.03-7.85,3.09-11.02c0.47-0.72,0.98-1.4,1.54-2.05
			C17.07,14.32,29.69,14.13,39.56,23.08z"/>
		<path class="st1" d="M3.38,53.13l11.97-5.41c1.33,3.29,3.32,5.87,5.99,7.74c2.66,1.87,5.7,2.8,9.11,2.8
			c2.98,0,5.38-0.71,7.22-2.14c1.84-1.43,2.75-3.28,2.75-5.55c0-3.36-2.15-5.76-6.46-7.22l-3.52-1.13V27.49l7.5,2.47
			C49.28,33.69,54.95,40.37,54.95,50c0,4.18-1.03,7.85-3.09,11.02c-2.06,3.16-4.94,5.63-8.65,7.41c-3.7,1.77-7.96,2.66-12.77,2.66
			c-6.39,0-12.01-1.6-16.86-4.79C8.75,63.09,5.34,58.7,3.38,53.13z"/>
		<path class="st3" d="M34.77,39.27c0,2.39-1.94,4.32-4.32,4.32c-2.39,0-4.32-1.94-4.32-4.32c0-2.39,1.94-4.32,4.32-4.32
			C32.83,34.94,34.77,36.88,34.77,39.27z"/>
	</g>
</g>
<g id="Layer_3">
	<g>
		<g>
			<g>
				<path class="st1" d="M96.19,25.41l-11.97,5.41c-1.33-3.29-3.32-5.87-5.99-7.74c-2.66-1.87-5.7-2.8-9.11-2.8
					c-2.98,0-5.38,0.71-7.22,2.14c-1.84,1.43-2.75,3.28-2.75,5.55c0,3.36,2.15,5.76,6.46,7.22l3.52,1.13v14.73l-7.5-2.47
					c-11.34-3.74-17.01-10.41-17.01-20.04c0-4.18,1.03-7.85,3.09-11.02c2.06-3.16,4.94-5.63,8.65-7.41
					c3.7-1.77,7.96-2.66,12.77-2.66c6.39,0,12.01,1.6,16.86,4.79C90.83,15.45,94.23,19.83,96.19,25.41z"/>
			</g>
		</g>
		<path class="st2" d="M78.24,23.08c-2.66-1.87-5.7-2.8-9.12-2.8c-2.97,0-5.38,0.71-7.22,2.14c-1.34,1.04-2.19,2.29-2.55,3.78
			c-5.39,2.65-10.71,6.94-13.54,9.39c-0.81-2.14-1.2-4.49-1.2-7.05c0-4.18,1.03-7.85,3.09-11.02c0.47-0.72,0.98-1.4,1.54-2.05
			C55.75,14.32,68.37,14.13,78.24,23.08z"/>
		<path class="st1" d="M42.06,53.13l11.97-5.41c1.33,3.29,3.32,5.87,5.99,7.74c2.66,1.87,5.7,2.8,9.11,2.8
			c2.98,0,5.38-0.71,7.22-2.14c1.84-1.43,2.75-3.28,2.75-5.55c0-3.36-2.15-5.76-6.46-7.22l-3.52-1.13V27.49l7.5,2.47
			C87.96,33.69,93.63,40.37,93.63,50c0,4.18-1.03,7.85-3.09,11.02c-2.06,3.16-4.94,5.63-8.65,7.41c-3.7,1.77-7.96,2.66-12.77,2.66
			c-6.39,0-12.01-1.6-16.86-4.79C47.43,63.09,44.02,58.7,42.06,53.13z"/>
		<path class="st3" d="M73.45,39.27c0,2.39-1.94,4.32-4.32,4.32c-2.39,0-4.32-1.94-4.32-4.32c0-2.39,1.94-4.32,4.32-4.32
			C71.51,34.94,73.45,36.88,73.45,39.27z"/>
	</g>
</g>
</svg>
